<?xml version="1.0" encoding="UTF-8"?>
<svg width="66px" height="86px" viewBox="0 0 66 86" version="1.1" xmlns="http://www.w3.org/2000/svg" xmlns:xlink="http://www.w3.org/1999/xlink">
    <!-- Generator: Sketch 61 (89581) - https://sketch.com -->
    <title>Shape</title>
    <desc>Created with Sketch.</desc>
    <g id="Page-1" stroke="none" stroke-width="1" fill="none" fill-rule="evenodd">
        <g id="noun_Paper_889771" fill="#003594" fill-rule="nonzero">
            <path d="M0,-4e-05 L0,86.0000644 C15.98486,86.0000644 48.93283,86.0000644 66,86.0000644 L65.9376,16.31246 C62.06254,18.60346 57.81513,20.30206 53.35576,18.90616 C52.02672,18.51766 51.52712,16.53576 52.51281,15.56246 C53.60472,13.49756 53.26214,10.96796 52.54401,8.90616 C50.98299,4.98716 47.98583,0.98716 44.08327,0.90616 L0,-4e-05 Z M56.32167,7.56246 C57.20176,10.33796 57.45547,12.81696 56.88363,15.40616 C59.32782,15.33416 63.04748,13.83376 65.93756,12.03116 C62.97162,6.98716 57.97635,2.98716 52.23179,1.56246 C54.18648,3.18436 55.53839,5.36726 56.32167,7.56246 Z M19.01325,14.99996 L46.98675,14.99996 L46.98675,18.99996 L19.01325,18.99996 L19.01325,14.99996 Z M7.99243,28.99996 L29.97162,28.99996 L29.97162,32.99996 L7.99243,32.99996 L7.99243,28.99996 Z M35.96594,28.99996 L57.94513,28.99996 L57.94513,32.99996 L35.96594,32.99996 L35.96594,28.99996 Z M7.99243,36.99996 L29.97162,36.99996 L29.97162,40.99992 L7.99243,40.99992 L7.99243,36.99996 Z M35.96594,36.99996 L57.94513,36.99996 L57.94513,40.99992 L35.96594,40.99992 L35.96594,36.99996 Z M7.99243,44.99992 L29.97162,44.99992 L29.97162,49.00002 L7.99243,49.00002 L7.99243,44.99992 Z M35.96594,44.99992 L57.94513,44.99992 L57.94513,49.00002 L35.96594,49.00002 L35.96594,44.99992 Z M7.99243,53.00002 L29.97162,53.00002 L29.97162,57.00002 L7.99243,57.00002 L7.99243,53.00002 Z M35.96594,53.00002 L57.94513,53.00002 L57.94513,57.00002 L35.96594,57.00002 L35.96594,53.00002 Z M7.99243,61.00002 L29.97162,61.00002 L29.97162,65.00002 L7.99243,65.00002 L7.99243,61.00002 Z M35.96594,61.00002 L57.94513,61.00002 L57.94513,65.00002 L35.96594,65.00002 L35.96594,61.00002 Z M7.99243,69.00002 L29.97162,69.00002 L29.97162,73.00002 L7.99243,73.00002 L7.99243,69.00002 Z M35.96594,69.00002 L57.94513,69.00002 L57.94513,73.00002 L35.96594,73.00002 L35.96594,69.00002 Z" id="Shape"></path>
        </g>
    </g>
</svg>