<?xml version="1.0" encoding="UTF-8"?>
<svg width="694px" height="398px" viewBox="0 0 694 398" version="1.1" xmlns="http://www.w3.org/2000/svg" xmlns:xlink="http://www.w3.org/1999/xlink">
    <title>cn-logo</title>
    <g id="Page-1" stroke="none" stroke-width="1" fill="none" fill-rule="evenodd">
        <g id="cn-logo" fill="#FFFFFF" fill-rule="nonzero">
            <path d="M616.705882,0.352941176 L616.705882,246 L615.764706,246 L451.058824,1.29411765 L294.588235,1.29411765 C352.705882,40.1176471 393.882353,118 393.882353,198.941176 C393.882353,277.764706 347.764706,360.117647 288.705882,397.764706 L455.294118,397.764706 L455.294118,158.941176 L449.647059,156.117647 L611.529412,397.058824 L693.647059,397.058824 L693.647059,0.352941176 L616.705882,0.352941176 Z" id="Path"></path>
            <path d="M284.705882,236.117647 C275.529412,285.058824 245.411765,326 185.411765,326 C111.058824,326 83.0588235,262.235294 83.0588235,199.647059 C83.0588235,133.764706 111.294118,70 185.411765,70 C235.764706,70 264.705882,98.7058824 278.117647,137.764706 L363.058824,137.764706 C342.823529,57.0588235 279.529412,0.117647059 185.411765,0.117647059 C68.7058824,0.352941176 0,87.4117647 0,199.647059 C0,308.588235 68.7058824,395.882353 185.647059,395.882353 C288.941176,395.882353 355.058824,327.647059 368.470588,236.117647 L284.705882,236.117647 L284.705882,236.117647 Z" id="Path"></path>
        </g>
    </g>
</svg>