<?xml version="1.0" encoding="UTF-8"?>
<svg width="694px" height="398px" viewBox="0 0 694 398" version="1.1" xmlns="http://www.w3.org/2000/svg" xmlns:xlink="http://www.w3.org/1999/xlink">
    <!-- Generator: Sketch 61 (89581) - https://sketch.com -->
    <title>cn-logo</title>
    <desc>Created with Sketch.</desc>
    <g id="Page-1" stroke="none" stroke-width="1" fill="none" fill-rule="evenodd">
        <g id="cn-logo" transform="translate(0.000000, -2.000000)" fill="#003594" fill-rule="nonzero">
            <path d="M616.705882,2.35294118 L616.705882,248 L615.764706,248 L451.058824,3.29411765 L294.588235,3.29411765 C352.705882,42.1176471 393.882353,120 393.882353,200.941176 C393.882353,279.764706 347.764706,362.117647 288.705882,399.764706 L455.294118,399.764706 L455.294118,160.941176 L449.647059,158.117647 L611.529412,399.058824 L693.647059,399.058824 L693.647059,2.35294118 L616.705882,2.35294118 Z" id="Path"></path>
            <path d="M284.705882,238.117647 C275.529412,287.058824 245.411765,328 185.411765,328 C111.058824,328 83.0588235,264.235294 83.0588235,201.647059 C83.0588235,135.764706 111.294118,72 185.411765,72 C235.764706,72 264.705882,100.705882 278.117647,139.764706 L363.058824,139.764706 C342.823529,59.0588235 279.529412,2.11764706 185.411765,2.11764706 C68.7058824,2.35294118 0,89.4117647 0,201.647059 C0,310.588235 68.7058824,397.882353 185.647059,397.882353 C288.941176,397.882353 355.058824,329.647059 368.470588,238.117647 L284.705882,238.117647 L284.705882,238.117647 Z" id="Path"></path>
        </g>
    </g>
</svg>