<?xml version="1.0" encoding="utf-8"?>
<!-- Generator: Adobe Illustrator 23.0.4, SVG Export Plug-In . SVG Version: 6.00 Build 0)  -->
<svg version="1.1" id="Layer_1" xmlns="http://www.w3.org/2000/svg" xmlns:xlink="http://www.w3.org/1999/xlink" x="0px" y="0px"
	 viewBox="0 306.8 612 168.3" enable-background="new 0 306.8 612 168.3" xml:space="preserve">
<path d="M322.3,475.1l-1-2.9h-6.9l-1,2.9h-4.9l6.9-18.4h4.9l6.9,18.4H322.3z M317.8,460.9l-2.4,7.8h4.7L317.8,460.9z"/>
<path d="M344.8,456.6c2.7,0,7.1,0.8,7.1,5.9c0,3.1-1.8,4.3-3.7,5.1l4.3,7.5h-5.1l-3.7-6.7h-2.9v6.7H336v-18.4H344.8z M340.7,465h3.7
	c2.5,0,2.7-2,2.7-2.5c0-2.4-2-2.6-2.7-2.6h-3.9v5.1H340.7z"/>
<path d="M362.9,475.1v-18.4h4.5v18.4H362.9z"/>
<path d="M383.5,471.3h10v3.7h-15.7v-3.5l10.2-11.4h-9.4v-3.5h14.9v3.5L383.5,471.3z"/>
<path d="M411.9,456c6.7,0,9.4,5.5,9.4,10c0,4.9-3.3,9.6-9.2,9.6c-6.1,0-9.2-4.7-9.2-9.8C402.9,461.5,405.3,456,411.9,456z
	 M411.9,471.7c3.3,0,4.7-3.1,4.7-5.7c0-3.3-1.4-6.1-4.7-6.1c-3.5,0-4.5,3.3-4.5,5.9C407.4,468.6,408.8,471.7,411.9,471.7z"/>
<path d="M442.3,475.1l-6.5-11v11h-4.5v-18.4h4.5l6.5,11.2v-11.2h4.5v18.4H442.3z"/>
<path d="M469.4,475.1l-1-2.9h-6.9l-1,2.9h-4.9l6.9-18.4h4.9l6.9,18.4H469.4z M465.1,460.9l-2.4,7.8h4.7L465.1,460.9z"/>
<path d="M507.3,456.6c4.3,0,6.7,2.2,6.7,6.3c0,4.7-4.1,6.1-7.5,6.1h-3.7v6.1H498v-18.4L507.3,456.6L507.3,456.6z M502.7,465.6h2.9
	c2.2,0,3.5-0.6,3.5-2.9c0-2.7-2.2-2.7-3.7-2.7h-2.9v5.7H502.7z"/>
<path d="M521.4,456.6h8.6c4.9,0,6.5,2.2,6.5,4.9c0,3.1-2.7,3.9-3.9,4.1c1.8,0.2,4.7,1,4.7,4.3c0,3.3-2.9,5.1-6.9,5.1h-9L521.4,456.6
	L521.4,456.6z M529.2,463.9c1,0,2.7,0,2.7-2c0-1.8-1.6-1.8-2.4-1.8h-3.9v3.9h3.5V463.9z M529,471.7c1.6,0,3.5,0,3.5-2.2
	c0-2.2-1.8-2.4-2.7-2.4h-3.9v4.5H529L529,471.7z"/>
<path d="M555.9,462.1c-1.4-1.4-2.9-2.4-4.9-2.4s-2.7,1.2-2.7,2c0,1,0.8,1.4,2.4,1.8l2,0.2c4.9,0.6,6.9,2.2,6.9,5.3
	c0,3.9-3.1,6.5-8.4,6.5c-4.3,0-6.5-1.6-8.4-3.7l3.5-2.2c1.2,1.6,3.3,2.4,5.3,2.4c1.4,0,3.3-0.6,3.3-2.2c0-1.4-1.6-1.8-3.1-2
	l-2.2-0.2c-3.3-0.4-5.9-2-5.9-5.3c0-3.7,2.7-6.1,7.5-6.1c3.9,0,6.3,1.8,8,3.5L555.9,462.1z"/>
<path fill="#003594" d="M345.2,327.7c-0.8-5.7-6.3-10.2-12.8-10.2c-11.4,0-15.7,9.8-15.7,20c0,9.6,4.3,19.4,15.7,19.4
	c7.8,0,12.2-5.3,13.1-12.9H358c-1.4,14.5-11.4,23.7-25.5,23.7c-18,0-28.6-13.3-28.6-30.2c0-17.3,10.6-30.6,28.6-30.6
	c12.8,0,23.5,7.5,25.1,21h-12.4V327.7z"/>
<path fill="#003594" d="M361.7,323.6h11v7.8h0.2c2.2-5.3,7.8-9,13.3-9c0.8,0,1.8,0.2,2.6,0.4v10.8c-1-0.2-2.7-0.4-4.1-0.4
	c-8.4,0-11.4,6.1-11.4,13.5v18.8h-11.6L361.7,323.6L361.7,323.6z"/>
<path fill="#003594" d="M410.7,322.4c13.3,0,21.8,8.8,21.8,22.2c0,13.3-8.6,22.2-21.8,22.2c-13.1,0-21.8-8.8-21.8-22.2
	C389,331.3,397.6,322.4,410.7,322.4z M410.7,358.1c7.8,0,10.2-6.7,10.2-13.3c0-6.7-2.4-13.5-10.2-13.5c-7.8,0-10.2,6.7-10.2,13.5
	C400.5,351.3,402.9,358.1,410.7,358.1z"/>
<path fill="#003594" d="M436.2,323.6h11v5.9h0.2c2.9-4.7,8-7.1,12.9-7.1c12.4,0,15.3,6.9,15.3,17.3v25.9h-11.6v-23.7
	c0-6.9-2-10.4-7.5-10.4c-6.3,0-9,3.5-9,12v22.2h-11.6v-42H436.2z"/>
<path fill="#003594" d="M479.4,307.5H491v31.2l14.5-15.1h13.7l-15.9,15.5l17.7,26.7h-13.9L495.5,347l-4.5,4.3v14.3h-11.6
	L479.4,307.5L479.4,307.5z"/>
<path fill="#003594" d="M536.5,317.1h-11.6v-9.6h11.6V317.1z M524.9,323.6h11.6v42h-11.6V323.6z"/>
<path fill="#003594" d="M559.8,323.6h8.4v7.6h-8.4v20.8c0,3.9,1,4.9,4.9,4.9c1.2,0,2.4,0,3.5-0.4v9c-2,0.4-4.5,0.4-6.7,0.4
	c-7.1,0-13.3-1.6-13.3-10v-24.7h-6.9v-7.6h7.1v-12.6H560v12.6H559.8z"/>
<path fill="#003594" d="M581.6,347c0.4,7.3,3.9,10.6,10.4,10.6c4.7,0,8.4-2.9,9-5.5h10.2c-3.3,10-10.2,14.1-19.6,14.1
	c-13.3,0-21.6-9-21.6-22.2c0-12.6,8.6-22.2,21.6-22.2c14.3,0,21.2,12,20.4,24.9h-30.4V347z M600.4,339.7c-1-5.9-3.5-9-9.2-9
	c-7.3,0-9.4,5.7-9.6,9H600.4z"/>
<g>
	<path fill="#003594" d="M308.9,380.1h12.8l24.3,39h0.2v-39h12v58.1h-12.9l-24.1-38.8h-0.2v38.8h-12L308.9,380.1L308.9,380.1z"/>
	<path fill="#003594" d="M374.1,419.9c0.4,7.3,3.9,10.6,10.4,10.6c4.7,0,8.4-2.9,9-5.5h10.2c-3.3,10-10.2,14.1-19.6,14.1
		c-13.3,0-21.6-9-21.6-22.2c0-12.6,8.6-22.2,21.6-22.2c14.3,0,21.2,12,20.4,24.9h-30.4V419.9z M392.7,412.7c-1-5.9-3.5-9-9.2-9
		c-7.3,0-9.4,5.7-9.6,9H392.7z"/>
	<path fill="#003594" d="M455.7,438.2h-12l-7.5-28.2H436l-7.1,28.2h-12l-13.3-42h12.2l7.6,28.6h0.2l7.1-28.6h11.2l7.1,28.4h0.2
		l7.6-28.4h12L455.7,438.2z"/>
	<path fill="#003594" d="M479,424.4c0,5.1,4.3,7.1,8.8,7.1c3.3,0,7.6-1.4,7.6-5.3c0-3.5-4.7-4.7-13.1-6.5
		c-6.7-1.4-13.3-3.7-13.3-11.2c0-10.8,9.2-13.5,18.2-13.5c9.2,0,17.7,3.1,18.6,13.3h-11c-0.4-4.5-3.7-5.7-7.8-5.7
		c-2.5,0-6.5,0.4-6.5,3.9c0,4.1,6.5,4.7,13.1,6.3c6.7,1.6,13.3,3.9,13.3,11.8c0,11-9.6,14.7-19.2,14.7c-9.8,0-19.2-3.7-19.8-14.7h11
		V424.4z"/>
</g>
<g>
	<g>
		<path fill="#003594" d="M262.1,306.8v104.4h-0.4l-70-104h-66.5c24.7,16.5,42.2,49.6,42.2,84c0,33.5-19.6,68.5-44.7,84.5h70.8
			V374.2l-2.4-1.2l68.8,102.4h34.9V306.8H262.1z"/>
	</g>
	<path fill="#003594" d="M121,407c-3.9,20.8-16.7,38.2-42.2,38.2c-31.6,0-43.5-27.1-43.5-53.7c0-28,12-55.1,43.5-55.1
		c21.4,0,33.7,12.2,39.4,28.8h36.1c-8.6-34.3-35.5-58.5-75.5-58.5C29.2,306.8,0,343.8,0,391.5c0,46.3,29.2,83.4,78.9,83.4
		c43.9,0,72-29,77.7-67.9H121z"/>
</g>
</svg>
