<?xml version="1.0" encoding="UTF-8"?>
<svg width="101px" height="68px" viewBox="0 0 101 68" version="1.1" xmlns="http://www.w3.org/2000/svg" xmlns:xlink="http://www.w3.org/1999/xlink">
    <title>Shape</title>
    <g id="Page-1" stroke="none" stroke-width="1" fill="none" fill-rule="evenodd">
        <g id="noun_Eye_3367806" transform="translate(0.000000, 0.500000)" fill="#FFFFFF" fill-rule="nonzero">
            <path d="M50.4166667,66.75 C19.1666667,66.75 1.66666667,36.75 0.833333333,35.5 C-2.88657986e-15,34.25 -2.88657986e-15,32.5833333 0.833333333,31.3333333 C1.66666667,30.0833333 19.1666667,0.0833333333 50.4166667,0.0833333333 C81.6666667,0.0833333333 99.1666667,30.0833333 100,31.3333333 C100.833333,32.5833333 100.833333,34.25 100,35.5 C99.1666667,36.75 81.6666667,66.75 50.4166667,66.75 Z M9.58333333,33.4166667 C13.75,39.6666667 28.3333333,58.4166667 50.4166667,58.4166667 C72.5,58.4166667 87.0833333,39.6666667 91.25,33.4166667 C87.0833333,27.1666667 72.5,8.41666667 50.4166667,8.41666667 C28.3333333,8.41666667 13.75,26.75 9.58333333,33.4166667 Z M50.4166667,52.1666667 C40,52.1666667 31.6666667,43.8333333 31.6666667,33.4166667 C31.6666667,23 40,14.6666667 50.4166667,14.6666667 C60.8333333,14.6666667 69.1666667,23 69.1666667,33.4166667 C69.1666667,43.8333333 60.8333333,52.1666667 50.4166667,52.1666667 Z M50.4166667,23 C44.5833333,23 40,27.5833333 40,33.4166667 C40,39.25 44.5833333,43.8333333 50.4166667,43.8333333 C56.25,43.8333333 60.8333333,39.25 60.8333333,33.4166667 C60.8333333,27.5833333 56.25,23 50.4166667,23 Z" id="Shape"></path>
        </g>
    </g>
</svg>