<?xml version="1.0" encoding="UTF-8"?>
<svg width="64px" height="64px" viewBox="0 0 64 64" version="1.1" xmlns="http://www.w3.org/2000/svg" xmlns:xlink="http://www.w3.org/1999/xlink">
    <!-- Generator: Sketch 60.1 (88133) - https://sketch.com -->
    <title>question_mark</title>
    <desc>Created with Sketch.</desc>
    <g id="Page-1" stroke="none" stroke-width="1" fill="none" fill-rule="evenodd">
        <g id="question_mark" fill="#003594" fill-rule="nonzero">
            <path d="M32,0 C14.3267556,0 0,14.3267556 0,32 C0,49.6739556 14.3267556,64 32,64 C49.6739556,64 64,49.6739556 64,32 C64,14.3267556 49.6739556,0 32,0 Z M31.9992889,51.0222222 C29.6227556,51.0222222 27.6892444,49.0901333 27.6892444,46.7150222 C27.6892444,44.3356444 29.6227556,42.4014222 31.9992889,42.4014222 C34.3765333,42.4014222 36.3107558,44.3377778 36.3107558,46.7150222 C36.3114667,49.0901333 34.3765333,51.0222222 31.9992889,51.0222222 Z M43.5470222,27.5968 C42.7121778,28.896 41.5594667,30.4483556 39.2604444,32.2410667 C36.9756444,33.9911111 36.2844444,34.8892444 36.0760889,35.2696889 C35.9580444,35.4823111 35.7902222,35.9061333 35.6565333,36.6947556 C35.6103111,36.9720889 35.5719111,37.2721778 35.5413333,37.5943111 L35.3607111,39.5242667 L28.4124444,39.5406222 L28.5006222,37.3169778 C28.5127111,37.0325333 28.5432889,36.4743111 28.6200889,35.9530667 C28.8504889,34.368 29.3916444,32.96 30.2279111,31.7703111 C31.0129778,30.6517333 32.5368889,29.2366222 34.8849778,27.4474667 C36.6215111,26.1226667 37.2999111,25.3653333 37.5616,24.9642667 C37.8958222,24.4544 38.0572444,23.9175111 38.0572444,23.3251556 C38.0572444,21.952 37.5559111,20.8647111 36.5681778,20.0931556 C35.52,19.2746667 34.0664889,18.8593778 32.2496,18.8593778 C30.6389333,18.8593778 29.28,19.2853333 28.2090667,20.1237333 C27.0755556,21.0048 26.2798222,22.2236444 25.9015111,23.6536889 L25.4321778,25.4257778 L18.6318222,24.6883556 L19.1125333,22.3857778 C19.7383111,19.3863111 21.1498667,17.0709333 23.3095111,15.5043556 C26.1070222,13.4741333 29.1093333,12.4444444 32.2353778,12.4444444 C35.6885333,12.4444444 38.5152,13.3326222 41.1299556,15.2398222 C43.5470222,17.0048 44.9336889,19.8563556 44.9336889,23.0634667 C44.9336889,24.6343111 44.48,26.1169778 43.5470222,27.5968 Z" id="Shape"></path>
        </g>
    </g>
</svg>