<?xml version="1.0" encoding="UTF-8"?>
<svg width="16px" height="16px" viewBox="0 0 16 16" version="1.1" xmlns="http://www.w3.org/2000/svg" xmlns:xlink="http://www.w3.org/1999/xlink">
    <!-- Generator: Sketch 58 (84663) - https://sketch.com -->
    <title>SEARCH ICON</title>
    <desc>Created with Sketch.</desc>
    <g id="Welcome" stroke="none" stroke-width="1" fill="none" fill-rule="evenodd">
        <g id="Desktop-HD" transform="translate(-1325.000000, -10.000000)" fill="#003594" fill-rule="nonzero">
            <g id="HEADER-#5">
                <g id="SEARCH-ICON" transform="translate(1325.000000, 10.000000)">
                    <path d="M15.7727206,14.5852472 L12.587959,11.400434 C13.5916682,10.1258868 14.0967622,8.58621917 14.0967622,7.04551494 C14.0967622,5.24305943 13.4074086,3.43956729 12.0320705,2.06446608 C10.6572507,0.689624028 8.85482434,7.32226804e-08 7.05291631,7.32226804e-08 C5.24815757,-0.000259013183 3.44158474,0.687032432 2.06443253,2.06446608 C0.688316947,3.44034477 0,5.24487355 0,7.04836569 C0,8.85185784 0.688316947,10.6563866 2.06443253,12.0320061 C3.43951149,13.4073665 5.24297446,14.0967312 7.04565996,14.0967312 C8.58608011,14.0967312 10.1257228,13.591629 11.4002494,12.5879036 L14.5852703,15.7727168 C14.736617,15.9240661 14.9356485,16.0000001 15.1339024,16.0000001 C15.3318972,16.0000001 15.5311877,15.9240661 15.6825345,15.7727168 L15.7727206,15.6825293 C15.9240674,15.53118 16,15.3316271 16,15.1338882 C16,14.9356311 15.9240674,14.7365965 15.7727206,14.5852472 Z M11.1063671,11.1062878 C9.98629715,12.2263759 8.5168856,12.7871974 7.04851067,12.7871974 C5.58013573,12.7871974 4.11098333,12.2263759 2.99065421,11.1062878 C1.87032508,9.98619971 1.30977178,8.51676438 1.30977178,7.04836569 C1.30977178,5.579967 1.87032508,4.11079083 2.99065421,2.99044358 C4.11098333,1.87009633 5.58039489,1.30953396 7.04851067,1.30953396 C8.5168856,1.30953396 9.98629715,1.87009633 11.1063671,2.99044358 C12.2264371,4.11079083 12.7872496,5.58022616 12.7872496,7.04836569 C12.7875087,8.51676438 12.2266963,9.98619971 11.1063671,11.1062878 Z" id="Shape"></path>
                </g>
            </g>
        </g>
    </g>
</svg>